#tb 0: 1/30
#media_type 0: video
#codec_id 0: rawvideo
#dimensions 0: 468x312
#sar 0: 0/1
0,          0,          0,        1,   292032, 0x3af3a5f7
0,          6,          6,        1,   292032, 0xe97fb504
0,          8,          8,        1,   292032, 0xd448db04
